<svg xmlns="http://www.w3.org/2000/svg" viewBox="0 0 19 16.18" width="19" height="16.18">
  <path d="M8.45 9.28l-.8-.59c-.3-.2-.61-.39-.61-.89 0-.39.3-.69.61-.98.91-.69 1.81-1.38 1.81-2.96S8.45 1 7.95 1h1.21l1.41-1H6.14C5.03 0 3.52.36 2.31 1.34 1.41 2.03.9 3.44.9 4.43.9 6.1 2.21 8 4.73 8h.71c-.1 0-.2.15-.2.54 0 .59.3.86.6 1.25-1.01.1-2.82.14-4.13.92C.4 11.5 0 12.46 0 13.25c0 1.47 1.51 2.93 4.63 2.93 3.62 0 5.64-1.98 5.64-3.94 0-1.48-.91-2.18-1.82-2.96zM5.53 7.02c-1.91 0-2.72-2.36-2.72-3.74 0-.49.1-1.08.51-1.58.3-.39.9-.69 1.51-.69 1.81 0 2.72 2.36 2.72 3.93 0 .3 0 .98-.51 1.47-.4.31-1 .61-1.51.61zm0 8.35c-2.31 0-3.82-1.08-3.82-2.55 0-1.48 1.31-1.97 1.81-2.16.9-.29 2.11-.29 2.31-.29h.61c1.61 1.09 2.31 1.67 2.31 2.76.01 1.26-1.1 2.24-3.22 2.24zM19 7.3h-3.01V4.29H14V7.3h-3v1.99h3v3h1.99v-3H19z"/>
</svg>
