<svg xmlns="http://www.w3.org/2000/svg" viewBox="0 0 23 19" width="23" height="19">
  <path d="M23 2.25c-.85.38-1.76.64-2.71.75.97-.59 1.72-1.53 2.07-2.65-.91.55-1.92.95-3 1.16A4.65 4.65 0 0 0 15.92 0c-2.61 0-4.72 2.15-4.72 4.8 0 .38.04.74.12 1.09-3.92-.2-7.4-2.11-9.73-5.01-.39.71-.63 1.53-.63 2.41 0 1.66.83 3.13 2.1 3.99a4.61 4.61 0 0 1-2.14-.6v.06c0 2.32 1.63 4.26 3.79 4.7-.4.11-.81.17-1.24.17-.3 0-.6-.03-.89-.09.6 1.91 2.34 3.29 4.41 3.33a9.337 9.337 0 0 1-5.86 2.05c-.38 0-.76-.02-1.13-.07C2.09 18.21 4.57 19 7.23 19c8.68 0 13.43-7.31 13.43-13.65 0-.21 0-.41-.01-.62.92-.67 1.72-1.52 2.35-2.48z"/>
</svg>
