<svg xmlns="http://www.w3.org/2000/svg" viewBox="0 0 18 21" width="18" height="21">
  <path d="M9.54 0C3.2 0 0 4.11 0 7.54c0 2.07.87 3.92 2.73 4.61.31.11.58 0 .67-.3.06-.21.21-.75.27-.97.09-.3.05-.41-.19-.67-.53-.58-.88-1.32-.88-2.37 0-3.05 2.53-5.78 6.58-5.78 3.59 0 5.56 1.98 5.56 4.62 0 3.48-1.7 6.41-4.23 6.41-1.4 0-2.44-1.04-2.11-2.32.4-1.53 1.18-3.18 1.18-4.28 0-.99-.59-1.81-1.8-1.81-1.44 0-2.58 1.33-2.58 3.12 0 1.14.43 1.91.43 1.91S4.16 15.3 3.9 16.28c-.51 1.95-.08 4.34-.04 4.58.02.14.23.18.32.07.13-.16 1.83-2.05 2.41-3.95.16-.54.94-3.32.94-3.32.46.8 1.82 1.5 3.26 1.5 4.29 0 7.21-3.54 7.21-8.27C18 3.33 14.64 0 9.54 0z"/>
</svg>
