<?xml version="1.0" standalone="no"?>
<!DOCTYPE svg PUBLIC "-//W3C//DTD SVG 20010904//EN"
 "http://www.w3.org/TR/2001/REC-SVG-20010904/DTD/svg10.dtd">
<svg version="1.0" xmlns="http://www.w3.org/2000/svg"
 width="1250.000000pt" height="1250.000000pt" viewBox="0 0 1250.000000 1250.000000"
 preserveAspectRatio="xMidYMid meet">
<metadata>
Created by potrace 1.11, written by Peter Selinger 2001-2013
</metadata>
<g transform="translate(0.000000,1250.000000) scale(0.100000,-0.100000)"
fill="#000000" stroke="none">
<path d="M2764 11401 c-197 -67 -390 -280 -479 -529 -23 -65 -47 -170 -60
-262 -3 -25 -13 -79 -22 -120 -9 -41 -17 -84 -19 -95 -1 -11 -3 -22 -4 -25 -1
-3 -3 -9 -4 -15 -2 -16 -15 -71 -43 -185 -14 -58 -26 -112 -28 -120 -3 -15
-13 -52 -74 -275 -94 -343 -172 -614 -326 -1130 -48 -159 -98 -326 -111 -370
-27 -94 -82 -274 -119 -395 -14 -47 -39 -128 -55 -180 -15 -52 -69 -230 -119
-395 -85 -279 -118 -384 -186 -605 -15 -47 -42 -137 -61 -200 -19 -63 -52
-171 -74 -240 -76 -245 -305 -997 -313 -1025 -3 -11 -28 -94 -57 -185 -28 -91
-52 -169 -54 -175 -1 -5 -9 -30 -16 -55 -7 -25 -15 -49 -16 -55 -1 -5 -28 -93
-59 -195 -90 -296 -97 -319 -94 -322 1 -2 -3 -12 -9 -24 -6 -11 -13 -32 -16
-45 -3 -13 -30 -107 -59 -209 -133 -451 -193 -665 -211 -750 -3 -14 -20 -90
-37 -170 -29 -135 -32 -161 -34 -365 -4 -311 15 -398 96 -453 30 -21 43 -23
119 -20 117 5 194 42 288 135 84 85 130 164 192 336 40 110 197 589 204 622 1
6 14 48 29 95 28 92 48 161 133 455 31 105 73 251 96 325 22 74 41 140 42 145
2 11 1 7 46 155 78 257 117 380 192 605 44 132 91 263 104 292 13 28 24 54 24
57 0 12 83 125 115 156 l34 33 73 -50 c111 -75 143 -88 218 -87 58 1 89 11
285 92 202 83 413 172 489 207 17 7 117 48 222 90 385 152 658 234 889 266 76
10 255 13 295 4 13 -2 42 -7 64 -11 158 -23 330 -139 394 -266 96 -188 77
-388 -57 -609 -31 -51 -183 -210 -301 -314 -261 -231 -596 -455 -960 -641 -63
-32 -117 -59 -120 -60 -3 0 -45 -20 -95 -43 -49 -23 -144 -65 -210 -93 -66
-27 -129 -54 -140 -59 -111 -50 -567 -206 -950 -324 -247 -77 -370 -163 -439
-307 -54 -114 -55 -212 -1 -277 36 -41 186 -116 296 -147 117 -32 312 -41 430
-19 168 30 414 100 619 175 118 44 321 125 349 140 9 5 34 17 56 26 22 9 85
38 140 65 55 26 135 63 178 83 191 89 240 112 362 173 163 82 272 140 307 164
14 11 29 19 33 19 14 0 264 172 369 254 189 148 371 322 506 486 34 41 71 85
81 98 63 75 206 292 248 377 71 144 119 304 136 455 3 30 8 71 10 90 6 48 6
282 0 355 -20 238 -209 511 -505 731 -74 54 -219 143 -319 194 l-81 42 27 47
c35 59 104 155 224 311 173 224 255 365 318 543 34 98 70 257 79 357 13 142 6
425 -13 521 -3 13 -8 42 -10 64 -3 22 -15 78 -26 125 -104 430 -415 820 -793
995 -193 88 -327 115 -556 110 -165 -3 -249 -13 -509 -61 -46 -9 -100 -14
-120 -11 -80 9 -140 67 -146 140 -3 54 31 188 79 302 139 333 157 395 158 545
1 121 -4 157 -33 234 -50 134 -112 211 -207 258 -59 29 -77 33 -157 35 -64 1
-105 -3 -141 -16z m896 -2186 c309 -24 547 -140 695 -339 102 -139 144 -414
100 -656 -24 -133 -85 -313 -152 -449 -102 -209 -159 -287 -350 -481 -264
-268 -571 -472 -916 -609 -76 -30 -278 -95 -334 -106 -88 -19 -306 -56 -353
-61 -102 -10 -121 -10 -186 -2 -135 16 -194 67 -194 168 0 60 23 161 87 380
24 85 51 180 59 210 8 30 21 76 30 101 8 25 16 54 19 65 13 65 162 537 239
761 117 338 244 612 336 727 95 118 186 190 285 224 81 29 285 62 420 69 61 3
112 7 113 9 2 1 9 1 15 -1 7 -2 46 -6 87 -10z"/>
<path d="M9204 11405 c-59 -17 -147 -79 -192 -133 -71 -85 -103 -156 -339
-737 -58 -143 -116 -287 -128 -320 -49 -127 -156 -401 -165 -420 -5 -11 -46
-117 -91 -235 -45 -118 -111 -291 -147 -385 -36 -93 -75 -197 -87 -230 -50
-134 -415 -1096 -448 -1180 -19 -49 -108 -279 -197 -510 -355 -917 -432 -1073
-595 -1203 -83 -67 -125 -95 -320 -213 -298 -181 -364 -245 -408 -405 -29
-103 -19 -297 21 -395 17 -43 73 -93 172 -153 120 -74 147 -99 164 -156 22
-75 10 -172 -41 -315 -14 -38 -27 -77 -29 -85 -2 -8 -84 -253 -182 -545 -291
-868 -557 -1719 -651 -2090 -26 -104 -30 -124 -37 -221 l-6 -81 62 -74 c130
-154 257 -247 319 -233 126 29 239 140 332 324 39 79 216 598 384 1125 36 116
72 224 78 240 6 17 12 35 13 40 1 6 70 216 153 467 228 685 451 1312 517 1454
131 279 376 423 1064 623 113 32 466 136 785 230 737 216 812 235 965 234 154
0 217 -38 225 -136 3 -38 -39 -305 -65 -417 -6 -25 -13 -56 -15 -70 -2 -14 -9
-45 -15 -70 -5 -25 -12 -56 -14 -70 -12 -63 -45 -216 -50 -230 -3 -8 -7 -28
-10 -45 -2 -16 -14 -74 -25 -129 -12 -54 -23 -110 -26 -125 -10 -50 -64 -366
-69 -406 -3 -22 -8 -51 -11 -65 -2 -14 -7 -38 -10 -55 -19 -98 -71 -316 -116
-485 -28 -107 -52 -202 -54 -210 -2 -8 -12 -51 -23 -95 -24 -95 -68 -301 -77
-365 -4 -24 -8 -47 -10 -50 -1 -3 -6 -36 -10 -73 -3 -37 -8 -78 -11 -90 -9
-48 -15 -257 -7 -257 5 0 34 16 65 35 59 37 99 86 215 260 77 116 157 254 221
380 96 190 124 257 299 725 142 379 140 371 210 565 162 445 204 562 263 730
22 66 45 129 50 140 10 24 138 386 175 498 14 43 30 88 35 100 5 12 27 76 50
142 106 303 134 327 495 425 399 109 523 178 596 334 39 83 41 94 45 207 2 81
-1 104 -21 153 -52 128 -88 155 -220 160 -53 2 -190 -19 -286 -45 -53 -13
-165 -22 -194 -15 l-26 7 6 101 c4 55 8 108 10 117 1 9 6 45 10 81 4 36 9 74
11 85 2 10 6 35 9 55 3 20 7 47 10 60 3 14 9 50 15 80 6 30 12 66 15 80 2 14
21 95 41 180 43 186 39 172 58 240 22 84 98 373 101 390 2 8 27 107 55 220 58
232 55 219 75 320 24 117 29 176 29 295 -1 117 -5 148 -34 261 -29 111 -87
190 -192 262 -60 41 -162 80 -231 88 -28 3 -56 7 -61 8 -8 1 -45 -106 -61
-174 -2 -8 -40 -141 -85 -295 -45 -154 -83 -287 -85 -295 -6 -25 -167 -555
-260 -855 -115 -372 -124 -401 -145 -465 -10 -30 -28 -86 -40 -125 -80 -261
-220 -683 -266 -802 -62 -160 -112 -243 -175 -295 -59 -47 -59 -48 -249 -111
-301 -101 -817 -250 -950 -274 -14 -2 -79 -17 -145 -33 -126 -30 -548 -114
-625 -125 -25 -3 -52 -8 -60 -10 -8 -2 -33 -6 -55 -10 -151 -22 -233 -41 -457
-103 -48 -14 -68 -16 -71 -8 -6 15 1 112 10 146 3 14 7 30 8 36 4 15 123 319
146 371 11 23 19 48 19 55 0 8 4 18 8 23 5 6 19 39 32 75 13 36 26 70 30 75 4
6 14 30 23 55 9 25 22 59 28 75 7 17 13 32 14 35 1 3 5 14 10 25 10 27 57 148
172 445 88 228 436 1135 505 1315 17 44 41 107 54 140 13 33 57 148 98 255 41
107 138 362 216 565 79 204 153 397 165 430 69 183 119 305 139 340 92 160 79
374 -39 629 -68 147 -240 234 -381 191z"/>
</g>
</svg>
